<mxfile host="app.diagrams.net" modified="2022-05-31T14:17:50.579Z" agent="5.0 (Macintosh; Intel Mac OS X 10_15_7) AppleWebKit/537.36 (KHTML, like Gecko) Chrome/101.0.4951.64 Safari/537.36" etag="ORgM1inbzkSRekPUza4_" version="18.1.3" type="github">
  <diagram id="3228e29e-7158-1315-38df-8450db1d8a1d" name="Page-1">
    <mxGraphModel dx="1623" dy="1574" grid="0" gridSize="10" guides="1" tooltips="1" connect="1" arrows="1" fold="1" page="1" pageScale="1" pageWidth="600" pageHeight="700" background="#EFF1F3" math="0" shadow="0">
      <root>
        <mxCell id="0" />
        <mxCell id="1" parent="0" />
        <mxCell id="Zxyhw3o_makbFYxT9f12-17" value="" style="rounded=1;whiteSpace=wrap;html=1;dashed=1;strokeWidth=5;fillColor=#E6D7C2;strokeColor=none;" parent="1" vertex="1">
          <mxGeometry x="36.5" y="-264" width="528" height="210" as="geometry" />
        </mxCell>
        <mxCell id="Zxyhw3o_makbFYxT9f12-7" value="" style="rounded=1;whiteSpace=wrap;html=1;dashed=1;strokeWidth=5;fillColor=#E6D7C2;strokeColor=none;" parent="1" vertex="1">
          <mxGeometry x="35" y="-525" width="530" height="174" as="geometry" />
        </mxCell>
        <mxCell id="Zxyhw3o_makbFYxT9f12-11" value="&lt;font style=&quot;font-size: 24px&quot;&gt;上游服务&lt;/font&gt;" style="text;html=1;strokeColor=none;fillColor=none;align=center;verticalAlign=middle;whiteSpace=wrap;rounded=0;dashed=1;" parent="1" vertex="1">
          <mxGeometry x="38" y="-503" width="132.5" height="20" as="geometry" />
        </mxCell>
        <mxCell id="Zxyhw3o_makbFYxT9f12-12" value="&lt;font style=&quot;font-size: 24px&quot;&gt;下游服务&lt;/font&gt;" style="text;html=1;strokeColor=none;align=center;verticalAlign=middle;whiteSpace=wrap;rounded=0;dashed=1;labelBackgroundColor=none;" parent="1" vertex="1">
          <mxGeometry x="49.5" y="-248" width="102" height="20" as="geometry" />
        </mxCell>
        <mxCell id="Cvay9vzX4nYaMX1bIdTz-2" value="" style="editableCssRules=.*;shape=image;verticalLabelPosition=bottom;labelBackgroundColor=#ffffff;verticalAlign=top;aspect=fixed;imageAspect=0;image=data:image/svg+xml,PHN2ZyB4bWxucz0iaHR0cDovL3d3dy53My5vcmcvMjAwMC9zdmciIHhtbG5zOnY9Imh0dHBzOi8vdmVjdGEuaW8vbmFubyIgd2lkdGg9IjIwIiBoZWlnaHQ9IjIwIiB2aWV3Qm94PSIwIDAgMjAgMjAiPiYjeGE7CTxzdHlsZSB0eXBlPSJ0ZXh0L2NzcyI+LnN0MCB7IGZpbGw6IHJnYig4MywgOTQsIDEyOCk7IH0gPC9zdHlsZT4mI3hhOwk8cGF0aCBjbGFzcz0ic3QwIiBkPSJNMTMuMzMgMHYyLjM4aC0yLjE2VjBIOC44M3YyLjM4SDYuNjdWMEg0LjI5djIuMzhhMiAyIDAgMCAwLTEuOTEgMS45MUgwdjIuMzhoMi4zOHYyLjE0SDB2Mi4zOGgyLjM4djIuMTRIMHYyLjM4aDIuMzhhMiAyIDAgMCAwIDEuOTEgMS45MVYyMGgyLjM4di0yLjM4aDIuMTZWMjBoMi4zNHYtMi4zOGgyLjE2VjIwaDIuMzh2LTIuMzhhMiAyIDAgMCAwIDEuOTEtMS45MUgyMHYtMi4zOGgtMi4zOHYtMi4xNEgyMFY4LjgxaC0yLjM4VjYuNjdIMjBWNC4yOWgtMi4zOGEyIDIgMCAwIDAtMS45MS0xLjkxVjB6bTEuNTMgMTUuMjRINS4xNGEuMzguMzggMCAwIDEtLjM4LS4zOFY1LjE0YS4zOC4zOCAwIDAgMSAuMzgtLjM4aDkuNzJhLjM4LjM4IDAgMCAxIC4zOC4zOHY5LjcyYS4zOC4zOCAwIDAgMS0uMzguMzh6bS0yLjA3LTYuMTJsLTMuNSA0Ljg2di0zLjYzSDcuMjJsMy42MS00LjgxdjMuNTh6Ii8+JiN4YTs8L3N2Zz4=;fillColor=#9AC7BF;" parent="1" vertex="1">
          <mxGeometry x="333.75" y="-211.75" width="105.5" height="105.5" as="geometry" />
        </mxCell>
        <mxCell id="Cvay9vzX4nYaMX1bIdTz-4" value="" style="shape=image;verticalLabelPosition=bottom;verticalAlign=top;imageAspect=0;aspect=fixed;image=data:image/svg+xml,PHN2ZyB4bWxuczp4bGluaz0iaHR0cDovL3d3dy53My5vcmcvMTk5OS94bGluayIgeG1sbnM9Imh0dHA6Ly93d3cudzMub3JnLzIwMDAvc3ZnIiBoZWlnaHQ9IjIwMCIgd2lkdGg9IjIwMCIgdmVyc2lvbj0iMS4xIiB2aWV3Qm94PSIwIDAgMTAyNCAxMDI0IiBjbGFzcz0iaWNvbiI+PGRlZnM+PHN0eWxlIHR5cGU9InRleHQvY3NzIj5AZm9udC1mYWNlIHsgZm9udC1mYW1pbHk6IGZlZWRiYWNrLWljb25mb250OyBzcmM6IHVybCgiLy9hdC5hbGljZG4uY29tL3QvZm9udF8xMDMxMTU4X3U2OXc4eWh4ZHUud29mZjI/dD0xNjMwMDMzNzU5OTQ0IikgZm9ybWF0KCJ3b2ZmMiIpLCB1cmwoIi8vYXQuYWxpY2RuLmNvbS90L2ZvbnRfMTAzMTE1OF91Njl3OHloeGR1LndvZmY/dD0xNjMwMDMzNzU5OTQ0IikgZm9ybWF0KCJ3b2ZmIiksIHVybCgiLy9hdC5hbGljZG4uY29tL3QvZm9udF8xMDMxMTU4X3U2OXc4eWh4ZHUudHRmP3Q9MTYzMDAzMzc1OTk0NCIpIGZvcm1hdCgidHJ1ZXR5cGUiKTsgfSYjeGE7PC9zdHlsZT48L2RlZnM+PHBhdGggZmlsbD0iIzRBOTE5QiIgZD0iTTkyOCA0ODBhMzIgMzIgMCAwIDAgMC02NGgtOTZ2LTY0aDk2YTMyIDMyIDAgMCAwIDAtNjRoLTk2di0yOC44QTY3LjIgNjcuMiAwIDAgMCA3NjQuOCAxOTJINzM2Vjk2YTMyIDMyIDAgMCAwLTY0IDB2OTZoLTY0Vjk2YTMyIDMyIDAgMCAwLTY0IDB2OTZoLTY0Vjk2YTMyIDMyIDAgMCAwLTY0IDB2OTZoLTY0Vjk2YTMyIDMyIDAgMCAwLTY0IDB2OTZoLTI4LjhBNjcuMiA2Ny4yIDAgMCAwIDE5MiAyNTkuMlYyODhIOTZhMzIgMzIgMCAwIDAgMCA2NGg5NnY2NEg5NmEzMiAzMiAwIDAgMCAwIDY0aDk2djY0SDk2YTMyIDMyIDAgMCAwIDAgNjRoOTZ2NjRIOTZhMzIgMzIgMCAwIDAgMCA2NGg5NnYyOC44QTY3LjIgNjcuMiAwIDAgMCAyNTkuMiA4MzJIMjg4djk2YTMyIDMyIDAgMCAwIDY0IDB2LTk2aDY0djk2YTMyIDMyIDAgMCAwIDY0IDB2LTk2aDY0djk2YTMyIDMyIDAgMCAwIDY0IDB2LTk2aDY0djk2YTMyIDMyIDAgMCAwIDY0IDB2LTk2aDI4LjhhNjcuMiA2Ny4yIDAgMCAwIDY3LjItNjcuMlY3MzZoOTZhMzIgMzIgMCAwIDAgMC02NGgtOTZ2LTY0aDk2YTMyIDMyIDAgMCAwIDAtNjRoLTk2di02NGg5NnogbS0xOTIgMjI0YTMyIDMyIDAgMCAxLTMyIDMySDMyMGEzMiAzMiAwIDAgMS0zMi0zMlYzMjBhMzIgMzIgMCAwIDEgMzItMzJoMzg0YTMyIDMyIDAgMCAxIDMyIDMydjM4NHoiLz48cGF0aCBmaWxsPSIjNEE5MTlCIiBkPSJNMzg0IDM4NGwyNTYgMCAwIDI1Ni0yNTYgMCAwLTI1NloiLz48L3N2Zz4=" parent="1" vertex="1">
          <mxGeometry x="159.5" y="-221" width="124" height="124" as="geometry" />
        </mxCell>
        <mxCell id="Cvay9vzX4nYaMX1bIdTz-6" value="&lt;b&gt;&lt;font style=&quot;font-size: 20px;&quot;&gt;CPU&lt;/font&gt;&lt;/b&gt;" style="text;html=1;strokeColor=none;fillColor=none;align=center;verticalAlign=middle;whiteSpace=wrap;rounded=0;fontColor=#4A919B;" parent="1" vertex="1">
          <mxGeometry x="188.5" y="-95" width="60" height="30" as="geometry" />
        </mxCell>
        <mxCell id="Cvay9vzX4nYaMX1bIdTz-7" value="&lt;b&gt;&lt;font style=&quot;font-size: 20px;&quot;&gt;GPU&lt;/font&gt;&lt;/b&gt;" style="text;html=1;strokeColor=none;fillColor=none;align=center;verticalAlign=middle;whiteSpace=wrap;rounded=0;fontColor=#535E80;" parent="1" vertex="1">
          <mxGeometry x="356.5" y="-95" width="60" height="30" as="geometry" />
        </mxCell>
        <mxCell id="Cvay9vzX4nYaMX1bIdTz-8" value="" style="shape=flexArrow;endArrow=classic;html=1;rounded=0;fontSize=20;fontColor=none;endWidth=31.333333333333332;endSize=8.446666666666667;width=20.666666666666668;noLabel=1;strokeColor=none;fillColor=#9AC7BF;" parent="1" edge="1">
          <mxGeometry width="50" height="50" relative="1" as="geometry">
            <mxPoint x="120.5" y="-596" as="sourcePoint" />
            <mxPoint x="120.5" y="-535" as="targetPoint" />
          </mxGeometry>
        </mxCell>
        <mxCell id="Cvay9vzX4nYaMX1bIdTz-25" value="" style="rounded=1;whiteSpace=wrap;html=1;fillColor=#EFF1F3;" parent="1" vertex="1">
          <mxGeometry x="135.5" y="-645" width="120" height="42" as="geometry" />
        </mxCell>
        <mxCell id="Cvay9vzX4nYaMX1bIdTz-26" value="img" style="rounded=1;whiteSpace=wrap;html=1;fillColor=#535E80;fontColor=#FFFFFF;" parent="1" vertex="1">
          <mxGeometry x="180.5" y="-645" width="24" height="42" as="geometry" />
        </mxCell>
        <mxCell id="Cvay9vzX4nYaMX1bIdTz-27" value="img" style="rounded=1;whiteSpace=wrap;html=1;fillColor=#535E80;fontColor=#FFFFFF;" parent="1" vertex="1">
          <mxGeometry x="228.5" y="-645" width="24" height="42" as="geometry" />
        </mxCell>
        <mxCell id="Cvay9vzX4nYaMX1bIdTz-28" value="img" style="rounded=1;whiteSpace=wrap;html=1;fillColor=#535E80;fontColor=#FFFFFF;" parent="1" vertex="1">
          <mxGeometry x="204.5" y="-645" width="24" height="42" as="geometry" />
        </mxCell>
        <mxCell id="Cvay9vzX4nYaMX1bIdTz-29" value="img" style="rounded=1;whiteSpace=wrap;html=1;fillColor=#535E80;fontColor=#FFFFFF;" parent="1" vertex="1">
          <mxGeometry x="156.5" y="-645" width="24" height="42" as="geometry" />
        </mxCell>
        <mxCell id="Cvay9vzX4nYaMX1bIdTz-30" value="" style="sketch=0;pointerEvents=1;shadow=0;dashed=0;html=1;strokeColor=none;fillColor=#535E80;labelPosition=center;verticalLabelPosition=bottom;verticalAlign=top;outlineConnect=0;align=center;shape=mxgraph.office.concepts.video_play;fontSize=20;fontColor=none;" parent="1" vertex="1">
          <mxGeometry x="49.5" y="-644" width="50" height="40" as="geometry" />
        </mxCell>
        <mxCell id="Cvay9vzX4nYaMX1bIdTz-31" value="&lt;font color=&quot;#535e80&quot;&gt;➕&lt;/font&gt;" style="text;html=1;strokeColor=none;fillColor=none;align=center;verticalAlign=middle;whiteSpace=wrap;rounded=0;fontSize=20;fontColor=#FFFFFF;" parent="1" vertex="1">
          <mxGeometry x="89.5" y="-638" width="60" height="30" as="geometry" />
        </mxCell>
        <mxCell id="Cvay9vzX4nYaMX1bIdTz-32" value="" style="shape=image;verticalLabelPosition=bottom;verticalAlign=top;imageAspect=0;aspect=fixed;image=data:image/svg+xml,PHN2ZyB4bWxuczp4bGluaz0iaHR0cDovL3d3dy53My5vcmcvMTk5OS94bGluayIgeG1sbnM9Imh0dHA6Ly93d3cudzMub3JnLzIwMDAvc3ZnIiBoZWlnaHQ9IjIwMCIgd2lkdGg9IjIwMCIgdmVyc2lvbj0iMS4xIiB2aWV3Qm94PSIwIDAgMTAyNCAxMDI0IiBjbGFzcz0iaWNvbiI+PGRlZnM+PHN0eWxlIHR5cGU9InRleHQvY3NzIj5AZm9udC1mYWNlIHsgZm9udC1mYW1pbHk6IGZlZWRiYWNrLWljb25mb250OyBzcmM6IHVybCgiLy9hdC5hbGljZG4uY29tL3QvZm9udF8xMDMxMTU4X3U2OXc4eWh4ZHUud29mZjI/dD0xNjMwMDMzNzU5OTQ0IikgZm9ybWF0KCJ3b2ZmMiIpLCB1cmwoIi8vYXQuYWxpY2RuLmNvbS90L2ZvbnRfMTAzMTE1OF91Njl3OHloeGR1LndvZmY/dD0xNjMwMDMzNzU5OTQ0IikgZm9ybWF0KCJ3b2ZmIiksIHVybCgiLy9hdC5hbGljZG4uY29tL3QvZm9udF8xMDMxMTU4X3U2OXc4eWh4ZHUudHRmP3Q9MTYzMDAzMzc1OTk0NCIpIGZvcm1hdCgidHJ1ZXR5cGUiKTsgfSYjeGE7PC9zdHlsZT48L2RlZnM+PHBhdGggZmlsbD0iIzRBOTE5QiIgZD0iTTkyOCA0ODBhMzIgMzIgMCAwIDAgMC02NGgtOTZ2LTY0aDk2YTMyIDMyIDAgMCAwIDAtNjRoLTk2di0yOC44QTY3LjIgNjcuMiAwIDAgMCA3NjQuOCAxOTJINzM2Vjk2YTMyIDMyIDAgMCAwLTY0IDB2OTZoLTY0Vjk2YTMyIDMyIDAgMCAwLTY0IDB2OTZoLTY0Vjk2YTMyIDMyIDAgMCAwLTY0IDB2OTZoLTY0Vjk2YTMyIDMyIDAgMCAwLTY0IDB2OTZoLTI4LjhBNjcuMiA2Ny4yIDAgMCAwIDE5MiAyNTkuMlYyODhIOTZhMzIgMzIgMCAwIDAgMCA2NGg5NnY2NEg5NmEzMiAzMiAwIDAgMCAwIDY0aDk2djY0SDk2YTMyIDMyIDAgMCAwIDAgNjRoOTZ2NjRIOTZhMzIgMzIgMCAwIDAgMCA2NGg5NnYyOC44QTY3LjIgNjcuMiAwIDAgMCAyNTkuMiA4MzJIMjg4djk2YTMyIDMyIDAgMCAwIDY0IDB2LTk2aDY0djk2YTMyIDMyIDAgMCAwIDY0IDB2LTk2aDY0djk2YTMyIDMyIDAgMCAwIDY0IDB2LTk2aDY0djk2YTMyIDMyIDAgMCAwIDY0IDB2LTk2aDI4LjhhNjcuMiA2Ny4yIDAgMCAwIDY3LjItNjcuMlY3MzZoOTZhMzIgMzIgMCAwIDAgMC02NGgtOTZ2LTY0aDk2YTMyIDMyIDAgMCAwIDAtNjRoLTk2di02NGg5NnogbS0xOTIgMjI0YTMyIDMyIDAgMCAxLTMyIDMySDMyMGEzMiAzMiAwIDAgMS0zMi0zMlYzMjBhMzIgMzIgMCAwIDEgMzItMzJoMzg0YTMyIDMyIDAgMCAxIDMyIDMydjM4NHoiLz48cGF0aCBmaWxsPSIjNEE5MTlCIiBkPSJNMzg0IDM4NGwyNTYgMCAwIDI1Ni0yNTYgMCAwLTI1NloiLz48L3N2Zz4=" parent="1" vertex="1">
          <mxGeometry x="247" y="-502" width="107" height="107" as="geometry" />
        </mxCell>
        <mxCell id="Cvay9vzX4nYaMX1bIdTz-33" value="&lt;b&gt;&lt;font style=&quot;font-size: 20px;&quot;&gt;CPU&lt;/font&gt;&lt;/b&gt;" style="text;html=1;strokeColor=none;fillColor=none;align=center;verticalAlign=middle;whiteSpace=wrap;rounded=0;fontColor=#4A919B;" parent="1" vertex="1">
          <mxGeometry x="270" y="-395" width="60" height="30" as="geometry" />
        </mxCell>
        <mxCell id="Cvay9vzX4nYaMX1bIdTz-34" value="" style="shape=flexArrow;endArrow=classic;html=1;rounded=0;fontSize=20;fontColor=none;endWidth=31.333333333333332;endSize=8.446666666666667;width=20.666666666666668;noLabel=1;strokeColor=none;fillColor=#9AC7BF;" parent="1" edge="1">
          <mxGeometry width="50" height="50" relative="1" as="geometry">
            <mxPoint x="118.87" y="-335" as="sourcePoint" />
            <mxPoint x="118.87" y="-274" as="targetPoint" />
          </mxGeometry>
        </mxCell>
        <mxCell id="Cvay9vzX4nYaMX1bIdTz-37" value="是否过审" style="text;html=1;strokeColor=none;fillColor=none;align=center;verticalAlign=middle;whiteSpace=wrap;rounded=0;fontSize=20;fontColor=#535E80;" parent="1" vertex="1">
          <mxGeometry x="428" y="-634" width="85" height="30" as="geometry" />
        </mxCell>
        <mxCell id="Cvay9vzX4nYaMX1bIdTz-38" value="" style="shape=flexArrow;endArrow=classic;html=1;rounded=0;fontSize=20;fontColor=none;endWidth=31.333333333333332;endSize=8.446666666666667;width=20.666666666666668;noLabel=1;strokeColor=none;fillColor=#9AC7BF;" parent="1" edge="1">
          <mxGeometry width="50" height="50" relative="1" as="geometry">
            <mxPoint x="470.29" y="-537" as="sourcePoint" />
            <mxPoint x="470.29" y="-598" as="targetPoint" />
          </mxGeometry>
        </mxCell>
        <mxCell id="Cvay9vzX4nYaMX1bIdTz-39" value="" style="shape=flexArrow;endArrow=classic;html=1;rounded=0;fontSize=20;fontColor=none;endWidth=31.333333333333332;endSize=8.446666666666667;width=20.666666666666668;noLabel=1;strokeColor=none;fillColor=#9AC7BF;" parent="1" edge="1">
          <mxGeometry width="50" height="50" relative="1" as="geometry">
            <mxPoint x="470.16999999999996" y="-277" as="sourcePoint" />
            <mxPoint x="470.16999999999996" y="-338" as="targetPoint" />
          </mxGeometry>
        </mxCell>
      </root>
    </mxGraphModel>
  </diagram>
</mxfile>
